<svg width="112" height="112" viewBox="0 0 112 112" fill="none" xmlns="http://www.w3.org/2000/svg">
<path d="M55.5999 12.3636H51.2171V1.07288e-05L55.6361 1.07288e-05C56.8797 1.07288e-05 57.9503 0.247525 58.8478 0.742554C59.7453 1.23356 60.4355 1.93988 60.9184 2.86152C61.4054 3.78315 61.6489 4.8859 61.6489 6.16976C61.6489 7.45763 61.4054 8.5644 60.9184 9.49007C60.4355 10.4157 59.7412 11.1261 58.8357 11.6211C57.9342 12.1161 56.8556 12.3636 55.5999 12.3636ZM53.8311 10.1239H55.4912C56.264 10.1239 56.9139 9.98711 57.4412 9.71343C57.9724 9.43574 58.3709 9.00711 58.6365 8.42757C58.9061 7.844 59.041 7.09139 59.041 6.16976C59.041 5.25617 58.9061 4.5096 58.6365 3.93005C58.3709 3.35051 57.9744 2.9239 57.4472 2.65022C56.92 2.37655 56.27 2.23971 55.4973 2.23971L53.8311 2.23971V10.1239Z" fill="black"/>
<path d="M70.093 14.5424L75.1217 3.24771L82.7325 6.63621L81.8559 8.60507L76.6332 6.27977L75.4349 8.9711L80.2661 11.1221L79.3895 13.0909L74.5583 10.94L73.3576 13.6368L78.6024 15.9719L77.7258 17.9408L70.093 14.5424Z" fill="black"/>
<path d="M85.606 23.8676L94.7939 15.5947L96.543 17.5372L88.9567 24.368L92.5034 28.307L90.9017 29.7491L85.606 23.8676Z" fill="black"/>
<path d="M109.35 39.919L97.5917 43.7395L96.7839 41.2535L108.542 37.4329L109.35 39.919Z" fill="black"/>
<path d="M106.345 66.7715L106.621 64.1418C106.966 64.1295 107.279 64.0632 107.559 63.9429C107.842 63.823 108.091 63.6569 108.303 63.4445C108.516 63.2321 108.688 62.9791 108.82 62.6854C108.952 62.3957 109.036 62.0748 109.073 61.7225C109.14 61.0861 109.04 60.5152 108.773 60.0096C108.511 59.5045 108.093 59.0903 107.52 58.767C106.951 58.4442 106.24 58.238 105.388 58.1483C104.511 58.0562 103.761 58.1089 103.137 58.3064C102.513 58.5079 102.024 58.8288 101.67 59.2691C101.316 59.7094 101.107 60.2398 101.042 60.8602C101.005 61.2084 101.017 61.5355 101.078 61.8413C101.139 62.1512 101.245 62.4315 101.396 62.6821C101.552 62.9332 101.75 63.1483 101.99 63.3273C102.23 63.5103 102.511 63.6491 102.833 63.7436L102.544 66.3721C101.987 66.2447 101.461 66.0174 100.965 65.6901C100.473 65.3672 100.045 64.956 99.6803 64.4564C99.3196 63.9612 99.0521 63.3867 98.878 62.7331C98.7075 62.0839 98.6637 61.365 98.7466 60.5765C98.8618 59.4798 99.2131 58.5252 99.8003 57.7128C100.387 56.9045 101.177 56.2995 102.17 55.8981C103.163 55.5006 104.328 55.3721 105.665 55.5127C107.005 55.6536 108.12 56.0256 109.007 56.6288C109.895 57.232 110.539 57.9918 110.941 58.9081C111.346 59.8248 111.492 60.8235 111.379 61.9042C111.304 62.6166 111.134 63.2665 110.87 63.8539C110.606 64.4453 110.257 64.9569 109.823 65.3888C109.393 65.8212 108.886 66.1564 108.303 66.3945C107.719 66.6367 107.066 66.7623 106.345 66.7715Z" fill="black"/>
<path d="M103.322 84.7235L92.6143 78.5416L93.9213 76.2778L104.629 82.4597L103.322 84.7235Z" fill="black"/>
<path d="M80.3561 98.8929C79.5637 97.8022 79.0962 96.724 78.9538 95.6584C78.8081 94.5952 78.9435 93.6039 79.36 92.6844C79.7756 91.7706 80.4246 90.9931 81.3069 90.3521C82.1958 89.7062 83.1402 89.3285 84.1401 89.2189C85.14 89.1093 86.123 89.2881 87.0892 89.7552C88.0554 90.2223 88.9335 90.9996 89.7236 92.0871C90.5161 93.1778 90.9852 94.2548 91.1308 95.318C91.2765 96.3813 91.1415 97.3698 90.726 98.2836C90.3128 99.2007 89.6617 99.9821 88.7728 100.628C87.8904 101.269 86.9493 101.644 85.9494 101.754C84.9487 101.869 83.9652 101.693 82.999 101.226C82.0296 100.761 81.1486 99.9837 80.3561 98.8929ZM82.5002 97.3352C83.0136 98.0417 83.5523 98.5607 84.1164 98.8921C84.6773 99.2258 85.2392 99.3796 85.8023 99.3536C86.3654 99.3275 86.9026 99.1288 87.4138 98.7574C87.925 98.386 88.28 97.9365 88.4788 97.409C88.6776 96.8816 88.7065 96.2984 88.5657 95.6595C88.4216 95.0229 88.0929 94.3514 87.5796 93.6448C87.0662 92.9383 86.5291 92.4181 85.9683 92.0844C85.4041 91.753 84.8405 91.6003 84.2774 91.6264C83.7143 91.6525 83.1772 91.8512 82.666 92.2226C82.1548 92.594 81.7998 93.0435 81.601 93.5709C81.4022 94.0984 81.3749 94.6805 81.519 95.317C81.6598 95.9559 81.9869 96.6286 82.5002 97.3352Z" fill="black"/>
<path d="M64.6666 106.87C64.8151 107.336 65.0965 107.663 65.5108 107.851C65.9251 108.038 66.4393 108.067 67.0534 107.936C67.4707 107.847 67.8105 107.714 68.0727 107.534C68.3358 107.359 68.5224 107.153 68.6324 106.915C68.7385 106.679 68.7639 106.431 68.7087 106.171C68.6706 105.953 68.5851 105.773 68.4524 105.633C68.3157 105.493 68.1463 105.383 67.944 105.303C67.7426 105.226 67.5166 105.169 67.2659 105.132C67.0161 105.099 66.753 105.081 66.4767 105.078L65.3349 105.049C64.7823 105.043 64.2646 104.988 63.7819 104.885C63.2991 104.782 62.8658 104.621 62.4819 104.402C62.098 104.184 61.7761 103.898 61.5161 103.546C61.2522 103.195 61.0647 102.768 60.9536 102.265C60.8003 101.524 60.8528 100.842 61.1114 100.219C61.3668 99.6012 61.813 99.0682 62.4502 98.62C63.0842 98.1767 63.8933 97.8504 64.8775 97.6412C65.8538 97.4337 66.7359 97.4026 67.5238 97.5478C68.3078 97.6938 68.9649 98.0171 69.4951 98.5174C70.0221 99.0226 70.388 99.7081 70.5926 100.574L68.1184 101.1C68.0046 100.7 67.8165 100.386 67.5541 100.158C67.2885 99.9348 66.9679 99.7911 66.5922 99.727C66.2134 99.6676 65.8035 99.6847 65.3626 99.7785C64.9296 99.8705 64.567 100.013 64.2749 100.207C63.9789 100.402 63.7661 100.63 63.6367 100.892C63.5072 101.154 63.4735 101.431 63.5354 101.722C63.5931 101.994 63.7224 102.205 63.9231 102.356C64.1199 102.507 64.3856 102.615 64.7203 102.68C65.051 102.745 65.4482 102.784 65.9117 102.797L67.2988 102.848C68.3711 102.879 69.2585 103.096 69.9612 103.498C70.6638 103.9 71.1081 104.548 71.2941 105.442C71.4537 106.174 71.3948 106.855 71.1175 107.486C70.8362 108.118 70.3817 108.661 69.7541 109.115C69.1266 109.569 68.3718 109.89 67.49 110.078C66.5925 110.268 65.7764 110.281 65.0419 110.117C64.3035 109.953 63.6891 109.637 63.1988 109.169C62.7085 108.701 62.3809 108.108 62.216 107.391L64.6666 106.87Z" fill="black"/>
<path d="M50.7799 98.5892L48.2094 110.683L40.0605 108.951L40.5086 106.842L46.1006 108.031L46.7131 105.149L41.5403 104.05L41.9884 101.942L47.1612 103.041L47.775 100.154L42.1593 98.9602L42.6074 96.8521L50.7799 98.5892Z" fill="black"/>
<path d="M20.5671 80.52L9.85989 86.7018L5.76685 79.6124L7.6333 78.5348L10.4193 83.3604L12.9707 81.8874L10.4563 77.5324L12.3227 76.4548L14.8371 80.8098L19.2601 78.2562L20.5671 80.52Z" fill="black"/>
<path d="M6.31609 54.9559C7.65695 54.815 8.8244 54.9492 9.81843 55.3587C10.812 55.7642 11.6029 56.3771 12.1909 57.1975C12.7745 58.0143 13.1233 58.965 13.2373 60.0497C13.3522 61.1425 13.2071 62.1492 12.802 63.0699C12.397 63.9906 11.7507 64.7526 10.8631 65.3558C9.97549 65.9589 8.86326 66.3308 7.5264 66.4713C6.18554 66.6122 5.01831 66.48 4.02469 66.0745C3.03108 65.669 2.24247 65.0579 1.65887 64.2411C1.07126 63.4247 0.720031 62.4701 0.605183 61.3774C0.491177 60.2927 0.636689 59.29 1.04172 58.3693C1.44233 57.445 2.08643 56.6813 2.97403 56.0781C3.8612 55.4709 4.97522 55.0968 6.31609 54.9559ZM6.59311 57.5916C5.72455 57.6829 5.00575 57.8899 4.43671 58.2128C3.86725 58.5316 3.45304 58.9414 3.19406 59.4421C2.93508 59.9428 2.83861 60.5073 2.90466 61.1358C2.97071 61.7642 3.18244 62.2963 3.53986 62.7322C3.89728 63.1681 4.38785 63.4848 5.01158 63.6823C5.63489 63.8758 6.38082 63.9269 7.24938 63.8356C8.11794 63.7443 8.83695 63.5392 9.40641 63.2204C9.97545 62.8975 10.3895 62.4858 10.6484 61.9851C10.9074 61.4844 11.0039 60.9198 10.9378 60.2914C10.8718 59.663 10.66 59.1309 10.3026 58.695C9.94521 58.2591 9.45485 57.9444 8.83154 57.7509C8.20781 57.5534 7.46167 57.5003 6.59311 57.5916Z" fill="black"/>
<path d="M10.8552 34.7911C12.1375 35.2078 13.1494 35.8053 13.8909 36.5836C14.6337 37.3582 15.1069 38.2398 15.3104 39.2284C15.5113 40.212 15.4432 41.2224 15.1062 42.2597C14.7667 43.3047 14.2246 44.1653 13.4801 44.8417C12.7356 45.5181 11.8353 45.9513 10.7791 46.1413C9.72289 46.3313 8.55557 46.2186 7.27714 45.8033C5.99488 45.3866 4.98235 44.791 4.23956 44.0165C3.49677 43.2419 3.02491 42.3629 2.82399 41.3793C2.61924 40.3945 2.68662 39.3796 3.02615 38.3347C3.36318 37.2974 3.90396 36.4405 4.64846 35.7642C5.39038 35.0827 6.28944 34.647 7.34564 34.4569C8.40309 34.2631 9.57294 34.3745 10.8552 34.7911ZM10.0362 37.3116C9.20564 37.0418 8.46476 36.9386 7.8136 37.002C7.16369 37.0617 6.61861 37.2676 6.17837 37.6196C5.73813 37.9717 5.42039 38.4482 5.22513 39.0492C5.02987 39.6501 5.00685 40.2224 5.15607 40.766C5.30529 41.3096 5.62464 41.7984 6.11412 42.2325C6.60484 42.6628 7.2655 43.0129 8.0961 43.2828C8.9267 43.5526 9.66696 43.6577 10.3169 43.5981C10.968 43.5346 11.5137 43.3268 11.954 42.9747C12.3942 42.6227 12.712 42.1462 12.9072 41.5452C13.1025 40.9443 13.1255 40.372 12.9763 39.8284C12.827 39.2848 12.5071 38.7979 12.0164 38.3676C11.5269 37.9335 10.8668 37.5815 10.0362 37.3116Z" fill="black"/>
<path d="M23.6444 26.9649L20.7117 30.222L11.5237 21.9491L14.4806 18.6651C15.3128 17.7409 16.2131 17.1109 17.1815 16.7752C18.1469 16.4368 19.1336 16.3965 20.1417 16.6543C21.1525 16.9091 22.1349 17.466 23.089 18.3251C24.0461 19.1868 24.7056 20.1084 25.0677 21.0896C25.4324 22.0679 25.4958 23.0592 25.2577 24.0634C25.0224 25.0646 24.4846 26.0317 23.6444 26.9649ZM20.7964 26.7807L21.9072 25.547C22.4243 24.9727 22.7575 24.3982 22.9069 23.8232C23.056 23.2426 23.0041 22.6597 22.7512 22.0745C22.4979 21.4836 22.0288 20.8799 21.3439 20.2632C20.665 19.6519 20.02 19.2525 19.4089 19.0651C18.8004 18.8747 18.2181 18.8838 17.662 19.0925C17.1058 19.3012 16.5692 19.6927 16.0522 20.2669L14.9373 21.5051L20.7964 26.7807Z" fill="black"/>
<path d="M36.8918 7.1514C36.6496 6.72616 36.3064 6.46486 35.8622 6.36748C35.4179 6.27011 34.909 6.34911 34.3354 6.60447C33.9457 6.77799 33.6412 6.97965 33.4219 7.20945C33.201 7.43557 33.0614 7.67614 33.0031 7.93117C32.9485 8.18456 32.9752 8.43259 33.0833 8.67525C33.166 8.88074 33.2868 9.0384 33.4459 9.14822C33.6086 9.2564 33.7972 9.32881 34.0118 9.36545C34.2247 9.39841 34.4576 9.40704 34.7105 9.39135C34.9618 9.37197 35.2229 9.33503 35.4938 9.2805L36.6166 9.07136C37.1584 8.96231 37.6761 8.90803 38.1698 8.90852C38.6634 8.90902 39.1207 8.97635 39.5417 9.11051C39.9627 9.24468 40.3369 9.45693 40.6644 9.74725C40.9956 10.0359 41.2678 10.4148 41.481 10.8838C41.7851 11.5766 41.8754 12.2545 41.7521 12.9174C41.6307 13.575 41.305 14.1891 40.775 14.7599C40.247 15.3254 39.5234 15.8128 38.6042 16.222C37.6924 16.628 36.8361 16.8419 36.0351 16.8637C35.2379 16.8838 34.528 16.7043 33.9054 16.325C33.2848 15.9405 32.7844 15.3461 32.4043 14.5417L34.7151 13.5129C34.9094 13.8801 35.1587 14.148 35.4628 14.3166C35.769 14.4798 36.1125 14.5538 36.4933 14.5384C36.8762 14.5177 37.2735 14.4157 37.6853 14.2324C38.0898 14.0523 38.4147 13.8372 38.6601 13.5869C38.9092 13.335 39.0699 13.0675 39.142 12.7842C39.2141 12.501 39.1896 12.2233 39.0685 11.9513C38.9556 11.6976 38.7852 11.5179 38.5576 11.4122C38.3336 11.3049 38.0512 11.2544 37.7104 11.2607C37.3732 11.2655 36.9767 11.3098 36.5207 11.3939L35.1533 11.6326C34.098 11.825 33.1848 11.7976 32.414 11.5505C31.6431 11.3033 31.0737 10.7616 30.7058 9.9254C30.3977 9.24318 30.3137 8.56469 30.4538 7.88993C30.5976 7.21354 30.9292 6.58791 31.4486 6.01302C31.968 5.43813 32.6395 4.96735 33.4631 4.60067C34.3014 4.22744 35.0969 4.04508 35.8496 4.05358C36.606 4.06044 37.2726 4.24164 37.8494 4.59719C38.4263 4.95273 38.87 5.46447 39.1806 6.13239L36.8918 7.1514Z" fill="black"/>
</svg>
